<svg xmlns="http://www.w3.org/2000/svg" xmlns:xlink="http://www.w3.org/1999/xlink" viewBox="0 0 396.18 303.9"><defs><style>.cls-1{isolation:isolate;}.cls-2,.cls-6,.cls-7{fill:#6c77a1;}.cls-2{opacity:0.25;}.cls-11,.cls-3{fill:#fff;}.cls-4{fill:url(#linear-gradient);}.cls-5{fill:url(#linear-gradient-2);}.cls-12,.cls-7{opacity:0.5;}.cls-8{fill:url(#linear-gradient-3);}.cls-9{fill:url(#linear-gradient-4);}.cls-10{fill:url(#linear-gradient-5);}.cls-11{mix-blend-mode:screen;opacity:0.6;}.cls-13{fill:url(#linear-gradient-6);}.cls-14{fill:url(#linear-gradient-7);}.cls-15{fill:url(#linear-gradient-8);}.cls-16{fill:url(#linear-gradient-9);}.cls-17{fill:url(#linear-gradient-10);}.cls-18{fill:url(#linear-gradient-11);}.cls-19{fill:url(#linear-gradient-12);}.cls-20{fill:url(#linear-gradient-13);}.cls-21{fill:url(#linear-gradient-14);}.cls-22{fill:url(#linear-gradient-15);}.cls-23{fill:url(#linear-gradient-16);}</style><linearGradient id="linear-gradient" x1="179.42" y1="-11.5" x2="207.27" y2="179.44" gradientUnits="userSpaceOnUse"><stop offset="0" stop-color="#ff5983"/><stop offset="1" stop-color="#7e137c"/></linearGradient><linearGradient id="linear-gradient-2" x1="191.36" y1="198.03" x2="230.28" y2="198.03" xlink:href="#linear-gradient"/><linearGradient id="linear-gradient-3" x1="147.41" y1="198.03" x2="186.33" y2="198.03" gradientUnits="userSpaceOnUse"><stop offset="0" stop-color="#13c7e7"/><stop offset="1" stop-color="#207be9"/></linearGradient><linearGradient id="linear-gradient-4" x1="103.47" y1="198.03" x2="142.38" y2="198.03" xlink:href="#linear-gradient"/><linearGradient id="linear-gradient-5" x1="59.52" y1="198.03" x2="98.43" y2="198.03" xlink:href="#linear-gradient-3"/><linearGradient id="linear-gradient-6" x1="352.8" y1="102.81" x2="331.67" y2="150.61" xlink:href="#linear-gradient-3"/><linearGradient id="linear-gradient-7" x1="352.8" y1="148.37" x2="331.67" y2="196.17" xlink:href="#linear-gradient"/><linearGradient id="linear-gradient-8" x1="191.55" y1="296.58" x2="195.28" y2="296.58" xlink:href="#linear-gradient"/><linearGradient id="linear-gradient-9" x1="110.18" y1="3.57" x2="128.93" y2="22.92" xlink:href="#linear-gradient-3"/><linearGradient id="linear-gradient-10" x1="155.21" y1="-1.69" x2="182.22" y2="26.17" xlink:href="#linear-gradient-3"/><linearGradient id="linear-gradient-11" x1="30.69" y1="151.56" x2="53.32" y2="263.14" xlink:href="#linear-gradient"/><linearGradient id="linear-gradient-12" x1="40.74" y1="228.72" x2="45.21" y2="248.72" xlink:href="#linear-gradient"/><linearGradient id="linear-gradient-13" x1="237.07" y1="257.65" x2="379.96" y2="257.65" xlink:href="#linear-gradient-3"/><linearGradient id="linear-gradient-14" x1="330.91" y1="219.87" x2="344.33" y2="252.24" xlink:href="#linear-gradient"/><linearGradient id="linear-gradient-15" x1="328.55" y1="256.77" x2="344.93" y2="256.77" xlink:href="#linear-gradient-3"/><linearGradient id="linear-gradient-16" x1="351.21" y1="240.19" x2="369.37" y2="277.69" xlink:href="#linear-gradient"/></defs><g class="cls-1"><g id="Capa_2" data-name="Capa 2"><g id="OBJECTS"><rect class="cls-2" x="48.61" y="27.89" width="296.06" height="213.66" rx="3.06"/><rect class="cls-3" x="44.96" y="24.23" width="296.06" height="213.66" rx="3.06"/><path class="cls-4" d="M341,136V27.29A3.06,3.06,0,0,0,338,24.23H48A3.06,3.06,0,0,0,45,27.29V136Z"/><rect class="cls-3" x="239.17" y="63.77" width="89.84" height="167.07" rx="3.06"/><path class="cls-5" d="M226.71,222.42H194.93a3.57,3.57,0,0,1-3.57-3.57V177.21a3.57,3.57,0,0,1,3.57-3.57h31.78a3.57,3.57,0,0,1,3.57,3.57v41.64A3.57,3.57,0,0,1,226.71,222.42Zm-31.78-47.76a2.55,2.55,0,0,0-2.55,2.55v41.64a2.55,2.55,0,0,0,2.55,2.55h31.78a2.55,2.55,0,0,0,2.55-2.55V177.21a2.55,2.55,0,0,0-2.55-2.55Z"/><path class="cls-6" d="M219.11,188.06a8.29,8.29,0,1,1-8.29-8.29A8.29,8.29,0,0,1,219.11,188.06Z"/><rect class="cls-6" x="196.64" y="200.82" width="27.99" height="3.42"/><rect class="cls-7" x="199.21" y="206.48" width="22.86" height="2.12"/><rect class="cls-7" x="203.35" y="210.32" width="14.57" height="2.12"/><rect class="cls-7" x="201.77" y="214.17" width="17.73" height="2.12"/><path class="cls-8" d="M182.76,222.42H151a3.58,3.58,0,0,1-3.57-3.57V177.21a3.58,3.58,0,0,1,3.57-3.57h31.78a3.57,3.57,0,0,1,3.57,3.57v41.64A3.57,3.57,0,0,1,182.76,222.42ZM151,174.66a2.55,2.55,0,0,0-2.55,2.55v41.64A2.55,2.55,0,0,0,151,221.4h31.78a2.55,2.55,0,0,0,2.55-2.55V177.21a2.55,2.55,0,0,0-2.55-2.55Z"/><circle class="cls-6" cx="166.87" cy="188.05" r="8.29" transform="translate(-45.54 322.56) rotate(-80.76)"/><rect class="cls-6" x="152.69" y="200.82" width="27.99" height="3.42"/><rect class="cls-7" x="155.26" y="206.48" width="22.86" height="2.12"/><rect class="cls-7" x="159.4" y="210.32" width="14.57" height="2.12"/><rect class="cls-7" x="157.83" y="214.17" width="17.73" height="2.12"/><path class="cls-9" d="M138.81,222.42H107a3.57,3.57,0,0,1-3.57-3.57V177.21a3.57,3.57,0,0,1,3.57-3.57h31.77a3.57,3.57,0,0,1,3.57,3.57v41.64A3.57,3.57,0,0,1,138.81,222.42ZM107,174.66a2.55,2.55,0,0,0-2.55,2.55v41.64A2.55,2.55,0,0,0,107,221.4h31.77a2.55,2.55,0,0,0,2.55-2.55V177.21a2.55,2.55,0,0,0-2.55-2.55Z"/><circle class="cls-6" cx="122.92" cy="188.05" r="8.29" transform="translate(-88.41 264.31) rotate(-76.67)"/><rect class="cls-6" x="108.75" y="200.82" width="27.99" height="3.42"/><rect class="cls-7" x="111.31" y="206.48" width="22.86" height="2.12"/><rect class="cls-7" x="115.46" y="210.32" width="14.57" height="2.12"/><rect class="cls-7" x="113.88" y="214.17" width="17.73" height="2.12"/><path class="cls-10" d="M94.86,222.42H63.09a3.57,3.57,0,0,1-3.57-3.57V177.21a3.57,3.57,0,0,1,3.57-3.57H94.86a3.57,3.57,0,0,1,3.57,3.57v41.64A3.57,3.57,0,0,1,94.86,222.42ZM63.09,174.66a2.55,2.55,0,0,0-2.55,2.55v41.64a2.55,2.55,0,0,0,2.55,2.55H94.86a2.55,2.55,0,0,0,2.55-2.55V177.21a2.55,2.55,0,0,0-2.55-2.55Z"/><path class="cls-6" d="M87.27,188.06A8.29,8.29,0,1,1,79,179.77,8.29,8.29,0,0,1,87.27,188.06Z"/><rect class="cls-6" x="64.8" y="200.82" width="27.99" height="3.42"/><rect class="cls-7" x="67.36" y="206.48" width="22.86" height="2.12"/><rect class="cls-7" x="71.51" y="210.32" width="14.57" height="2.12"/><rect class="cls-7" x="69.93" y="214.17" width="17.73" height="2.12"/><path class="cls-3" d="M56.87,33.44v91.32h68.36V33.44Zm66.83,1L91.05,78.25,58.4,34.46Zm-65.81,1L90.41,79.1,57.89,122.72Zm.51,88.25L91.05,80l32.65,43.78Zm65.81-1L91.68,79.1l32.53-43.61Z"/><rect class="cls-6" x="250.82" y="80.63" width="69.21" height="6.69"/><rect class="cls-7" x="263.91" y="90.87" width="56.12" height="3.35"/><rect class="cls-6" x="257.37" y="107.84" width="62.66" height="6.69"/><rect class="cls-7" x="277.73" y="118.07" width="42.3" height="3.35"/><rect class="cls-6" x="250.82" y="135.04" width="69.21" height="6.69"/><rect class="cls-7" x="272.6" y="145.27" width="47.43" height="3.35"/><rect class="cls-6" x="250.82" y="162.24" width="69.21" height="6.69"/><rect class="cls-7" x="272.6" y="172.48" width="47.43" height="3.35"/><rect class="cls-3" x="255.05" y="40.53" width="56.25" height="4.54" transform="translate(566.36 85.59) rotate(180)"/><rect class="cls-11" x="269.2" y="35.07" width="42.11" height="3.16" transform="translate(580.5 73.29) rotate(180)"/><path class="cls-3" d="M326.92,40.07a5,5,0,1,1-5-5A5,5,0,0,1,326.92,40.07Z"/><path class="cls-3" d="M222.23,125.17H174.41a3.58,3.58,0,0,1-3.57-3.57v-9.4a3.57,3.57,0,0,1,3.57-3.57h47.82a3.57,3.57,0,0,1,3.57,3.57v9.4A3.58,3.58,0,0,1,222.23,125.17Zm-47.82-15.52a2.55,2.55,0,0,0-2.55,2.55v9.4a2.55,2.55,0,0,0,2.55,2.55h47.82a2.55,2.55,0,0,0,2.55-2.55v-9.4a2.55,2.55,0,0,0-2.55-2.55Z"/><rect class="cls-3" x="178.32" y="114.63" width="39.33" height="4.54"/><rect class="cls-11" x="151.15" y="78.91" width="74.14" height="2.85"/><rect class="cls-11" x="151.15" y="84.17" width="74.14" height="2.85"/><rect class="cls-11" x="168.42" y="89.43" width="56.88" height="2.85"/><rect class="cls-3" x="143.98" y="63.77" width="57.63" height="9.21"/><rect class="cls-3" x="208.25" y="63.77" width="17.05" height="9.21"/><g class="cls-12"><path class="cls-6" d="M217.8,161.15a.22.22,0,0,1-.15-.06l-1.8-1.34a.28.28,0,0,1-.1-.21.26.26,0,0,1,.1-.2l1.8-1.35a.27.27,0,0,1,.36,0,.26.26,0,0,1-.06.36l-1.52,1.14,1.52,1.15a.25.25,0,0,1,.06.35A.28.28,0,0,1,217.8,161.15Z"/></g><g class="cls-12"><path class="cls-6" d="M226.74,161.15a.28.28,0,0,1-.21-.11.25.25,0,0,1,.06-.35l1.52-1.15-1.52-1.14a.26.26,0,0,1-.06-.36.27.27,0,0,1,.36,0l1.8,1.35a.26.26,0,0,1,.1.2.28.28,0,0,1-.1.21l-1.8,1.34A.22.22,0,0,1,226.74,161.15Z"/></g><rect class="cls-6" x="220.29" y="158.55" width="3.42" height="1.97"/><rect class="cls-6" x="94.77" y="141.73" width="36.84" height="3.46"/><rect class="cls-7" x="94.77" y="147.47" width="26.32" height="1.73"/><rect class="cls-13" x="287.33" y="110.77" width="108.85" height="34.05" rx="3.06"/><path class="cls-3" d="M303.72,140.68a13,13,0,1,1,13-13A13,13,0,0,1,303.72,140.68Zm0-25.46a12.48,12.48,0,1,0,12.47,12.48A12.5,12.5,0,0,0,303.72,115.22Z"/><circle class="cls-3" cx="303.72" cy="127.7" r="10.56" transform="translate(109.94 394.15) rotate(-76.78)"/><rect class="cls-3" x="324.7" y="122.8" width="56.25" height="4.54"/><rect class="cls-11" x="324.7" y="129.64" width="42.11" height="3.16"/><rect class="cls-11" x="386.09" y="113.81" width="6.71" height="2.76"/><rect class="cls-14" x="287.33" y="156.33" width="108.85" height="34.05" rx="3.06"/><path class="cls-3" d="M303.72,186.24a13,13,0,1,1,13-13A13,13,0,0,1,303.72,186.24Zm0-25.46a12.48,12.48,0,1,0,12.47,12.48A12.5,12.5,0,0,0,303.72,160.78Z"/><circle class="cls-3" cx="303.72" cy="173.26" r="10.56" transform="translate(65.59 429.29) rotate(-76.78)"/><rect class="cls-3" x="324.7" y="168.36" width="56.25" height="4.54"/><rect class="cls-11" x="324.7" y="175.2" width="42.11" height="3.16"/><rect class="cls-11" x="386.09" y="159.37" width="6.71" height="2.76"/><circle class="cls-7" cx="202.9" cy="296.58" r="1.86"/><path class="cls-15" d="M195.28,296.58a1.87,1.87,0,1,1-1.86-1.87A1.87,1.87,0,0,1,195.28,296.58Z"/><circle class="cls-7" cx="183.93" cy="296.58" r="1.86"/><path class="cls-7" d="M176.3,296.58a1.86,1.86,0,1,1-1.86-1.87A1.86,1.86,0,0,1,176.3,296.58Z"/><path class="cls-7" d="M166.81,296.58a1.86,1.86,0,1,1-1.86-1.87A1.86,1.86,0,0,1,166.81,296.58Z"/><path class="cls-7" d="M157.32,296.58a1.86,1.86,0,1,1-1.86-1.87A1.86,1.86,0,0,1,157.32,296.58Z"/><circle class="cls-7" cx="145.97" cy="296.58" r="1.86"/><rect class="cls-16" x="96.61" y="5.46" width="43.95" height="13.55" rx="3.06"/><path class="cls-3" d="M108.73,11.68l-2.59-2.23a.41.41,0,0,0-.51,0L103,11.68h.79a.38.38,0,0,1,.39.39v1.86a.4.4,0,0,0,.4.4h2.53a.4.4,0,0,0,.4-.4V12.07a.38.38,0,0,1,.39-.39Z"/><rect class="cls-3" x="114.11" y="10.64" width="13.47" height="3.16"/><rect class="cls-3" x="129.45" y="10.64" width="3.85" height="3.16"/><path class="cls-17" d="M187.63,19.52H149.8A3.57,3.57,0,0,1,146.23,16V8.52A3.57,3.57,0,0,1,149.8,5h37.83a3.57,3.57,0,0,1,3.57,3.57V16A3.57,3.57,0,0,1,187.63,19.52ZM149.8,6a2.55,2.55,0,0,0-2.55,2.55V16a2.55,2.55,0,0,0,2.55,2.55h37.83A2.55,2.55,0,0,0,190.18,16V8.52A2.55,2.55,0,0,0,187.63,6Z"/><path class="cls-3" d="M158.86,11.68l-2.59-2.23a.41.41,0,0,0-.51,0l-2.59,2.23H154a.38.38,0,0,1,.39.39v1.86a.4.4,0,0,0,.4.4h2.53a.4.4,0,0,0,.4-.4V12.07a.39.39,0,0,1,.39-.39Z"/><rect class="cls-3" x="164.24" y="10.64" width="13.47" height="3.16"/><rect class="cls-3" x="179.59" y="10.64" width="3.85" height="3.16"/><path class="cls-6" d="M133.19,297.21h-.1a.51.51,0,1,1,0-1h.1a.51.51,0,0,1,0,1Zm-4.18,0a.56.56,0,0,1-.56-.51.47.47,0,0,1,.46-.51h.1a.51.51,0,0,1,0,1Zm-4.18,0h-.1a.51.51,0,0,1,0-1h.1a.51.51,0,1,1,0,1Zm-4.18,0a.56.56,0,0,1-.56-.51.47.47,0,0,1,.46-.51h.1a.51.51,0,1,1,0,1Zm-4.18,0a.56.56,0,0,1-.56-.51.47.47,0,0,1,.46-.51h.1a.51.51,0,1,1,0,1Zm-4.18,0h-.11a.51.51,0,0,1,0-1h.11a.51.51,0,1,1,0,1Zm-4.18,0a.56.56,0,0,1-.57-.51.47.47,0,0,1,.46-.51h.11a.51.51,0,1,1,0,1Zm-4.19,0h-.1a.51.51,0,0,1,0-1h.1a.51.51,0,1,1,0,1Zm-4.18,0a.56.56,0,0,1-.56-.51.47.47,0,0,1,.46-.51h.1a.51.51,0,1,1,0,1Zm-4.18,0a.56.56,0,0,1-.56-.51.47.47,0,0,1,.46-.51h.1a.51.51,0,0,1,0,1Zm-4.18,0h-.1a.51.51,0,0,1,0-1h.1a.51.51,0,1,1,0,1Zm-4.18,0a.56.56,0,0,1-.56-.51.47.47,0,0,1,.46-.51h.1a.51.51,0,0,1,0,1Zm-4.18,0h-.1a.51.51,0,0,1,0-1H83a.51.51,0,1,1,0,1Zm-4.18,0h-.1a.51.51,0,0,1,0-1h.1a.51.51,0,0,1,0,1Zm-4.18,0h-.1a.51.51,0,0,1,0-1h.1a.51.51,0,1,1,0,1Zm-4.18,0h-.11a.51.51,0,0,1,0-1h.11a.51.51,0,1,1,0,1Zm-4.18,0a.56.56,0,0,1-.57-.51.47.47,0,0,1,.46-.51h.11a.51.51,0,1,1,0,1Zm-4.18,0H62a.51.51,0,0,1,0-1h.11a.51.51,0,0,1,0,1Zm-4.19,0h-.1a.51.51,0,0,1,0-1h.1a.51.51,0,1,1,0,1Zm-4.18,0h-.1a.51.51,0,0,1,0-1h.1a.51.51,0,1,1,0,1Zm-4.18,0h-.1a.51.51,0,0,1,0-1h.1a.51.51,0,1,1,0,1Zm-4.18,0a.56.56,0,0,1-.56-.51.47.47,0,0,1,.46-.51h.1a.51.51,0,1,1,0,1Zm-4.18,0h-.1a.51.51,0,0,1,0-1h.1a.51.51,0,1,1,0,1Zm-4.18,0h-.1a.51.51,0,0,1,0-1H37a.51.51,0,1,1,0,1Zm-4.18,0h-.1a.51.51,0,0,1,0-1h.1a.51.51,0,1,1,0,1Zm-4.18,0h-.11a.51.51,0,0,1,0-1h.11a.51.51,0,1,1,0,1ZM25,295.54a.49.49,0,0,1-.41-.21l-.07-.09a.51.51,0,1,1,.83-.58L25,295l.47-.22a.51.51,0,0,1-.11.71A.49.49,0,0,1,25,295.54Zm-.79-4a.51.51,0,0,1-.51-.51v-.11a.51.51,0,0,1,1,0V291A.51.51,0,0,1,24.24,291.53Zm0-4.18a.51.51,0,0,1-.51-.51.55.55,0,0,1,.51-.56.46.46,0,0,1,.51.45v.11A.51.51,0,0,1,24.24,287.35Zm0-4.18a.51.51,0,0,1-.51-.51v-.11a.51.51,0,0,1,1,0v.11A.51.51,0,0,1,24.24,283.17Zm0-4.19a.51.51,0,0,1-.51-.51.56.56,0,0,1,.51-.56.47.47,0,0,1,.51.46v.1A.51.51,0,0,1,24.24,279Zm0-4.18a.51.51,0,0,1-.51-.51.56.56,0,0,1,.51-.56.47.47,0,0,1,.51.46v.1A.51.51,0,0,1,24.24,274.8Zm0-4.18a.51.51,0,0,1-.51-.51V270a.51.51,0,0,1,1,0v.1A.51.51,0,0,1,24.24,270.62Zm0-4.18a.51.51,0,0,1-.51-.51.56.56,0,0,1,.51-.56.47.47,0,0,1,.51.46v.1A.51.51,0,0,1,24.24,266.44Zm0-4.18a.51.51,0,0,1-.51-.51v-.1a.51.51,0,0,1,1,0v.1A.51.51,0,0,1,24.24,262.26Zm0-4.18a.51.51,0,0,1-.51-.51.56.56,0,0,1,.51-.56.47.47,0,0,1,.51.46v.1A.51.51,0,0,1,24.24,258.08Z"/><path class="cls-6" d="M389.44,107.56a.51.51,0,0,1-.51-.51V11.12a3.57,3.57,0,0,0-3.57-3.57H288.17a3.57,3.57,0,0,0-3.57,3.57v7a.51.51,0,1,1-1,0v-7a4.6,4.6,0,0,1,4.59-4.59h97.19A4.6,4.6,0,0,1,390,11.12v95.93A.51.51,0,0,1,389.44,107.56Z"/><path class="cls-6" d="M41.87,63h-13a4.6,4.6,0,0,1-4.59-4.59v-42a4.6,4.6,0,0,1,4.59-4.59H92.4a.51.51,0,0,1,.51.51.51.51,0,0,1-.51.51H28.85a3.57,3.57,0,0,0-3.57,3.57v42a3.58,3.58,0,0,0,3.57,3.57h13a.51.51,0,0,1,.51.51A.51.51,0,0,1,41.87,63Z"/><rect class="cls-18" y="169.27" width="86.01" height="86.01" rx="3.06"/><rect class="cls-3" x="14.88" y="180.34" width="56.25" height="4.54"/><rect class="cls-11" x="21.95" y="189.85" width="42.11" height="3.16"/><rect class="cls-11" x="25.99" y="194.98" width="34.04" height="3.16"/><path class="cls-3" d="M75.09,227.36H10.93a3.57,3.57,0,0,1-3.57-3.57v-7.1a3.57,3.57,0,0,1,3.57-3.57H75.09a3.57,3.57,0,0,1,3.57,3.57v7.1A3.57,3.57,0,0,1,75.09,227.36ZM10.93,214.14a2.55,2.55,0,0,0-2.55,2.55v7.1a2.55,2.55,0,0,0,2.55,2.55H75.09a2.55,2.55,0,0,0,2.55-2.55v-7.1a2.55,2.55,0,0,0-2.55-2.55Z"/><rect class="cls-3" x="21.22" y="218.36" width="43.58" height="3.76"/><rect class="cls-3" x="7.87" y="232.25" width="70.28" height="13.22" rx="3.06"/><rect class="cls-19" x="29.27" y="236.98" width="27.46" height="3.76"/><rect class="cls-20" x="237.07" y="211.4" width="142.89" height="92.5" rx="3.06"/><rect class="cls-3" x="321.28" y="217.23" width="53.42" height="80.44" rx="2.84"/><rect class="cls-21" x="328.55" y="225.74" width="16.38" height="16.38"/><rect class="cls-6" x="351.05" y="225.74" width="16.38" height="16.38"/><rect class="cls-22" x="328.55" y="248.58" width="16.38" height="16.38"/><rect class="cls-23" x="351.05" y="248.58" width="16.38" height="16.38"/><rect class="cls-6" x="328.55" y="271.42" width="16.38" height="16.38"/><rect class="cls-7" x="351.05" y="271.42" width="16.38" height="16.38"/><path class="cls-3" d="M304.92,294.18H256.74a3.57,3.57,0,0,1-3.57-3.57V277.48a3.57,3.57,0,0,1,3.57-3.57h48.18a3.58,3.58,0,0,1,3.57,3.57v13.13A3.58,3.58,0,0,1,304.92,294.18Zm-48.18-19.25a2.55,2.55,0,0,0-2.55,2.55v13.13a2.55,2.55,0,0,0,2.55,2.55h48.18a2.55,2.55,0,0,0,2.55-2.55V277.48a2.55,2.55,0,0,0-2.55-2.55Z"/><path class="cls-3" d="M264.09,284h-4.94a.34.34,0,0,0-.34.34.34.34,0,0,0,.34.34h4.94a.34.34,0,0,0,.34-.34A.34.34,0,0,0,264.09,284Z"/><path class="cls-3" d="M302.51,284h-2.13v-2.13a.34.34,0,1,0-.68,0V284h-2.13a.34.34,0,0,0-.34.34.34.34,0,0,0,.34.34h2.13v2.13a.34.34,0,1,0,.68,0v-2.13h2.13a.34.34,0,0,0,.34-.34A.34.34,0,0,0,302.51,284Z"/><rect class="cls-3" x="275.43" y="279.38" width="3.67" height="9.32"/><rect class="cls-3" x="281.06" y="279.38" width="5.27" height="9.32"/><rect class="cls-3" x="246.6" y="221.56" width="56.25" height="4.54"/><rect class="cls-11" x="246.6" y="253.14" width="42.11" height="3.16"/><rect class="cls-11" x="246.6" y="259.52" width="33.76" height="3.16"/><rect class="cls-3" x="246.6" y="239.28" width="31.15" height="9.28"/><rect class="cls-6" x="10.03" y="96.28" width="25.13" height="2.63"/><rect class="cls-6" x="10.03" y="91.35" width="22.98" height="2.63"/><rect class="cls-6" x="10.03" y="86.42" width="14.75" height="2.63"/><rect class="cls-6" x="10.03" y="81.48" width="21.62" height="2.63"/><rect class="cls-6" x="352.14" y="54.18" width="25.13" height="2.63" transform="translate(729.41 110.99) rotate(180)"/><rect class="cls-6" x="354.29" y="49.24" width="22.98" height="2.63" transform="translate(731.56 101.12) rotate(180)"/><rect class="cls-6" x="362.52" y="44.31" width="14.75" height="2.63" transform="translate(739.79 91.25) rotate(180)"/><rect class="cls-6" x="355.65" y="39.38" width="21.62" height="2.63" transform="translate(732.92 81.38) rotate(180)"/><g class="cls-12"><path class="cls-6" d="M125.53,275.82a5.21,5.21,0,1,1,1.62-7.19A5.21,5.21,0,0,1,125.53,275.82Zm-5-7.95a4.19,4.19,0,1,0,5.79,1.31A4.2,4.2,0,0,0,120.5,267.87Z"/><path class="cls-6" d="M130.15,283.14a13.81,13.81,0,0,1-3.66,1.62l-.32.09-2.42-3a9.4,9.4,0,0,1-1.18.05l-2.16,3.17-.33-.07a13.82,13.82,0,0,1-3.78-1.33,14,14,0,0,1-3.24-2.35l-.24-.24,1.37-3.58-.33-.49c-.11-.16-.2-.33-.3-.51l-3.82-.29-.11-.32a13.66,13.66,0,0,1-.74-3.94,14.12,14.12,0,0,1,.42-4l.08-.32,3.79-.61a11.68,11.68,0,0,1,.55-1l-1.66-3.46.23-.25a13.77,13.77,0,0,1,6.69-4.24l.33-.09,2.42,3q.6-.06,1.17-.06l2.17-3.16.33.06a14.16,14.16,0,0,1,3.78,1.33,13.79,13.79,0,0,1,3.24,2.36l.24.23-1.38,3.59a5.85,5.85,0,0,1,.34.48c.1.17.2.34.29.51l3.83.3.11.32a13.7,13.7,0,0,1,.31,7.92l-.08.32-3.79.6a9.45,9.45,0,0,1-.55,1l1.66,3.47-.22.25A14,14,0,0,1,130.15,283.14Zm-3.62.55a12.94,12.94,0,0,0,5.67-3.58l-1.61-3.36.15-.24a9.94,9.94,0,0,0,.74-1.4l.11-.26,3.67-.58a12.77,12.77,0,0,0,.32-3.37,13.15,13.15,0,0,0-.58-3.33l-3.72-.28-.13-.25a5.83,5.83,0,0,0-.39-.69,7.49,7.49,0,0,0-.45-.65l-.17-.22,1.33-3.48a12.69,12.69,0,0,0-2.76-2,12.94,12.94,0,0,0-3.17-1.16l-2.1,3.07h-.29a9.35,9.35,0,0,0-1.57.07l-.28,0L119,259.15a12.73,12.73,0,0,0-5.66,3.58l1.6,3.36-.15.24a9.29,9.29,0,0,0-.73,1.39l-.11.26-3.68.59a12.72,12.72,0,0,0-.31,3.36,12.58,12.58,0,0,0,.58,3.33l3.71.29.13.25q.18.34.39.69a7.42,7.42,0,0,0,.46.64l.17.23L114,280.84a13.15,13.15,0,0,0,2.76,2A12.76,12.76,0,0,0,120,284l2.1-3.07h.28a9.48,9.48,0,0,0,1.58-.06l.28,0Z"/></g><path class="cls-6" d="M218.3,0a7,7,0,1,0,7,7A7,7,0,0,0,218.3,0Zm3.22,7.65H219v2.56a.65.65,0,1,1-1.3,0V7.65h-2.57a.66.66,0,0,1-.65-.66.65.65,0,0,1,.65-.65h2.57V3.77a.65.65,0,1,1,1.3,0V6.34h2.57a.66.66,0,0,1,.66.65A.67.67,0,0,1,221.52,7.65Z"/><path class="cls-6" d="M227.31,301.39l-3.72-4.48a4.34,4.34,0,0,0,0-5.6,4.36,4.36,0,1,0-2.2,7,4.27,4.27,0,0,0,1-.42l3.72,4.49a.78.78,0,0,0,.79.25.89.89,0,0,0,.29-.15A.77.77,0,0,0,227.31,301.39Zm-9.23-5.49a2.85,2.85,0,0,1,.38-4,3,3,0,0,1,1.06-.55,2.84,2.84,0,0,1,3.57,3,2.84,2.84,0,0,1-5,1.54Z"/></g></g></g></svg>